<svg width="198" height="55" viewBox="0 0 198 55" fill="none" xmlns="http://www.w3.org/2000/svg">
<rect y="0.494629" width="197.433" height="53.9855" rx="10" fill="#6BA5C0"/>
<path d="M29.1698 22.8749L28.1618 35.6909H26.4878L27.1718 26.9429L22.6898 35.6909H21.4118L18.2798 26.9249L17.5958 35.6909H15.9218L16.9118 22.8749H18.4238L22.2218 33.4949L27.6578 22.8749H29.1698ZM39.5852 26.6189L38.8832 35.6909H37.1012L37.2092 34.3229C36.9092 34.8029 36.4952 35.1749 35.9672 35.4389C35.4512 35.6909 34.8812 35.8169 34.2572 35.8169C33.2612 35.8169 32.4992 35.5529 31.9712 35.0249C31.4552 34.4849 31.1972 33.7049 31.1972 32.6849C31.1972 32.4449 31.2032 32.2649 31.2152 32.1449L31.6472 26.6189H33.4652L33.0152 32.0369C33.0032 32.1209 32.9972 32.2469 32.9972 32.4149C32.9972 33.7109 33.6032 34.3589 34.8152 34.3589C35.5592 34.3589 36.1532 34.1249 36.5972 33.6569C37.0532 33.1889 37.3112 32.5409 37.3712 31.7129L37.7852 26.6189H39.5852ZM44.822 35.8169C43.346 35.8169 42.08 35.4329 41.024 34.6649L41.69 33.3689C42.698 34.0889 43.754 34.4489 44.858 34.4489C45.518 34.4489 46.016 34.3469 46.352 34.1429C46.688 33.9389 46.856 33.6389 46.856 33.2429C46.856 32.8709 46.688 32.5889 46.352 32.3969C46.016 32.2049 45.494 32.0069 44.786 31.8029C44.15 31.6229 43.628 31.4489 43.22 31.2809C42.824 31.1009 42.482 30.8429 42.194 30.5069C41.918 30.1709 41.78 29.7269 41.78 29.1749C41.78 28.3349 42.11 27.6629 42.77 27.1589C43.442 26.6549 44.336 26.4029 45.452 26.4029C46.112 26.4029 46.736 26.5049 47.324 26.7089C47.924 26.9129 48.422 27.2009 48.818 27.5729L48.17 28.8509C47.294 28.1429 46.388 27.7889 45.452 27.7889C44.816 27.7889 44.324 27.9029 43.976 28.1309C43.64 28.3469 43.472 28.6589 43.472 29.0669C43.472 29.3309 43.562 29.5469 43.742 29.7149C43.922 29.8829 44.138 30.0209 44.39 30.1289C44.654 30.2249 45.032 30.3449 45.524 30.4889C46.16 30.6689 46.676 30.8489 47.072 31.0289C47.48 31.1969 47.828 31.4549 48.116 31.8029C48.404 32.1389 48.548 32.5829 48.548 33.1349C48.548 33.9749 48.212 34.6349 47.54 35.1149C46.868 35.5829 45.962 35.8169 44.822 35.8169ZM51.2129 26.6189H53.0309L52.3109 35.6909H50.4929L51.2129 26.6189ZM53.4809 22.6589L53.3369 24.5669H51.2129L51.3569 22.6589H53.4809ZM59.1337 35.8169C58.2577 35.8169 57.4897 35.6369 56.8297 35.2769C56.1697 34.9169 55.6597 34.4069 55.2997 33.7469C54.9517 33.0749 54.7777 32.3009 54.7777 31.4249C54.7777 30.4049 54.9697 29.5169 55.3537 28.7609C55.7377 28.0049 56.2837 27.4229 56.9917 27.0149C57.7117 26.6069 58.5517 26.4029 59.5117 26.4029C60.1957 26.4029 60.8197 26.5049 61.3837 26.7089C61.9597 26.9129 62.4577 27.2009 62.8777 27.5729L62.2117 28.8689C61.7557 28.5329 61.3117 28.2809 60.8797 28.1129C60.4597 27.9449 60.0157 27.8609 59.5477 27.8609C58.6237 27.8609 57.9097 28.1789 57.4057 28.8149C56.9017 29.4389 56.6497 30.3149 56.6497 31.4429C56.6497 32.3669 56.8777 33.0869 57.3337 33.6029C57.8017 34.1189 58.4497 34.3769 59.2777 34.3769C59.7457 34.3769 60.1777 34.2989 60.5737 34.1429C60.9817 33.9749 61.4077 33.7169 61.8517 33.3689L62.3197 34.6649C61.9237 35.0249 61.4437 35.3069 60.8797 35.5109C60.3277 35.7149 59.7457 35.8169 59.1337 35.8169Z" fill="#373737"/>
</svg>
