<svg width="198" height="54" viewBox="0 0 198 54" fill="none" xmlns="http://www.w3.org/2000/svg">
<rect width="197.831" height="53.9855" rx="10" fill="#EAF6FD"/>
<path d="M22.9815 28.683C23.3295 28.791 23.6175 28.989 23.8455 29.277C24.0735 29.553 24.2655 29.943 24.4215 30.447L25.6455 34.425H23.6835L22.3875 30.159C22.2555 29.703 22.0215 29.391 21.6855 29.223C21.3495 29.043 20.8935 28.953 20.3175 28.953H17.6535L17.2215 34.425H15.3855L16.3755 21.609H21.8115C23.1195 21.609 24.1275 21.909 24.8355 22.509C25.5555 23.109 25.9155 23.943 25.9155 25.011C25.9155 25.983 25.6695 26.787 25.1775 27.423C24.6855 28.047 23.9535 28.467 22.9815 28.683ZM21.2895 27.459C23.1855 27.459 24.1335 26.679 24.1335 25.119C24.1335 23.775 23.2995 23.103 21.6315 23.103H18.1215L17.7795 27.459H21.2895ZM29.3582 29.925V30.159C29.3582 31.107 29.5862 31.839 30.0422 32.355C30.5102 32.871 31.1882 33.129 32.0762 33.129C33.1562 33.129 34.1222 32.793 34.9742 32.121L35.4422 33.399C35.0582 33.759 34.5482 34.041 33.9122 34.245C33.2882 34.449 32.6462 34.551 31.9862 34.551C31.0862 34.551 30.3002 34.371 29.6282 34.011C28.9682 33.651 28.4582 33.141 28.0982 32.481C27.7382 31.809 27.5582 31.035 27.5582 30.159C27.5582 29.175 27.7442 28.305 28.1162 27.549C28.5002 26.781 29.0342 26.187 29.7182 25.767C30.4022 25.347 31.1822 25.137 32.0582 25.137C33.2462 25.137 34.1822 25.479 34.8662 26.163C35.5502 26.847 35.8922 27.825 35.8922 29.097C35.8922 29.361 35.8742 29.637 35.8382 29.925H29.3582ZM32.1482 26.469C31.4282 26.469 30.8402 26.673 30.3842 27.081C29.9402 27.477 29.6402 28.065 29.4842 28.845H34.3262C34.3382 28.089 34.1462 27.507 33.7502 27.099C33.3662 26.679 32.8322 26.469 32.1482 26.469ZM38.6264 21.177H40.4444L39.3824 34.425H37.5644L38.6264 21.177ZM51.0473 25.353L50.3273 34.425H48.5453L48.6533 33.039C48.3653 33.519 47.9573 33.891 47.4293 34.155C46.9133 34.419 46.3433 34.551 45.7193 34.551C44.9513 34.551 44.2733 34.377 43.6853 34.029C43.1093 33.669 42.6593 33.159 42.3353 32.499C42.0233 31.839 41.8673 31.065 41.8673 30.177C41.8673 29.181 42.0473 28.305 42.4073 27.549C42.7673 26.781 43.2653 26.187 43.9013 25.767C44.5493 25.347 45.2933 25.137 46.1333 25.137C46.8293 25.137 47.4353 25.287 47.9513 25.587C48.4673 25.875 48.8633 26.289 49.1393 26.829L49.2473 25.353H51.0473ZM46.2413 33.129C47.0693 33.129 47.7233 32.811 48.2033 32.175C48.6833 31.527 48.9233 30.657 48.9233 29.565C48.9233 28.593 48.7013 27.855 48.2573 27.351C47.8253 26.835 47.2013 26.577 46.3853 26.577C45.5453 26.577 44.8853 26.895 44.4053 27.531C43.9253 28.167 43.6853 29.037 43.6853 30.141C43.6853 31.089 43.9073 31.827 44.3513 32.355C44.8073 32.871 45.4373 33.129 46.2413 33.129ZM57.984 29.781L61.368 34.425H59.208L56.832 31.041L53.898 34.425H51.702L55.86 29.745L52.638 25.353H54.78L56.976 28.467L59.676 25.353H61.872L57.984 29.781ZM71.5785 25.353L70.8585 34.425H69.0765L69.1845 33.039C68.8965 33.519 68.4885 33.891 67.9605 34.155C67.4445 34.419 66.8745 34.551 66.2505 34.551C65.4825 34.551 64.8045 34.377 64.2165 34.029C63.6405 33.669 63.1905 33.159 62.8665 32.499C62.5545 31.839 62.3985 31.065 62.3985 30.177C62.3985 29.181 62.5785 28.305 62.9385 27.549C63.2985 26.781 63.7965 26.187 64.4325 25.767C65.0805 25.347 65.8245 25.137 66.6645 25.137C67.3605 25.137 67.9665 25.287 68.4825 25.587C68.9985 25.875 69.3945 26.289 69.6705 26.829L69.7785 25.353H71.5785ZM66.7725 33.129C67.6005 33.129 68.2545 32.811 68.7345 32.175C69.2145 31.527 69.4545 30.657 69.4545 29.565C69.4545 28.593 69.2325 27.855 68.7885 27.351C68.3565 26.835 67.7325 26.577 66.9165 26.577C66.0765 26.577 65.4165 26.895 64.9365 27.531C64.4565 28.167 64.2165 29.037 64.2165 30.141C64.2165 31.089 64.4385 31.827 64.8825 32.355C65.3385 32.871 65.9685 33.129 66.7725 33.129ZM76.1393 31.311L76.1213 31.599C76.1213 32.547 76.5893 33.021 77.5253 33.021C77.8373 33.021 78.1553 32.973 78.4793 32.877L78.3713 34.353C77.9753 34.485 77.5253 34.551 77.0213 34.551C76.1453 34.551 75.4733 34.323 75.0053 33.867C74.5373 33.411 74.3033 32.751 74.3033 31.887C74.3033 31.707 74.3093 31.569 74.3213 31.473L74.6813 26.757H72.9173L73.0433 25.353H74.7893L74.9693 23.085L76.8233 22.455L76.6073 25.353H79.1093L79.0013 26.757H76.4993L76.1393 31.311ZM80.7883 25.353H82.6063L81.8863 34.425H80.0683L80.7883 25.353ZM83.0563 21.393L82.9123 23.301H80.7883L80.9323 21.393H83.0563ZM88.7092 34.551C87.8332 34.551 87.0652 34.371 86.4052 34.011C85.7452 33.651 85.2352 33.141 84.8752 32.481C84.5272 31.809 84.3532 31.029 84.3532 30.141C84.3532 29.133 84.5392 28.251 84.9112 27.495C85.2952 26.739 85.8292 26.157 86.5132 25.749C87.1972 25.341 87.9892 25.137 88.8892 25.137C89.7652 25.137 90.5272 25.323 91.1752 25.695C91.8352 26.055 92.3392 26.565 92.6872 27.225C93.0472 27.885 93.2272 28.659 93.2272 29.547C93.2272 30.555 93.0352 31.437 92.6512 32.193C92.2792 32.949 91.7512 33.531 91.0672 33.939C90.3952 34.347 89.6092 34.551 88.7092 34.551ZM88.7272 33.129C89.5792 33.129 90.2332 32.799 90.6892 32.139C91.1572 31.479 91.3912 30.597 91.3912 29.493C91.3912 28.557 91.1752 27.837 90.7432 27.333C90.3112 26.829 89.6932 26.577 88.8892 26.577C88.0252 26.577 87.3592 26.907 86.8912 27.567C86.4232 28.215 86.1892 29.091 86.1892 30.195C86.1892 31.155 86.3992 31.887 86.8192 32.391C87.2512 32.883 87.8872 33.129 88.7272 33.129ZM100.41 25.137C101.43 25.137 102.204 25.407 102.732 25.947C103.26 26.487 103.524 27.279 103.524 28.323C103.524 28.539 103.518 28.707 103.506 28.827L103.056 34.425H101.256L101.688 28.935C101.7 28.851 101.706 28.725 101.706 28.557C101.706 27.261 101.088 26.613 99.8521 26.613C99.0721 26.613 98.4541 26.847 97.9981 27.315C97.5421 27.783 97.2841 28.431 97.2241 29.259L96.8101 34.425H94.9921L95.5141 27.909C95.5621 27.417 95.5861 26.847 95.5861 26.199C95.5861 25.827 95.5801 25.545 95.5681 25.353H97.2601L97.2961 26.793C97.5961 26.277 98.0161 25.875 98.5561 25.587C99.1081 25.287 99.7261 25.137 100.41 25.137Z" fill="#373737"/>
</svg>
