<svg width="197" height="55" viewBox="0 0 197 55" fill="none" xmlns="http://www.w3.org/2000/svg">
<rect y="0.905273" width="196.661" height="53.9855" rx="10" fill="#E3CABA"/>
<path d="M19.2253 22.6041H14.8873L15.0133 21.0561H25.5613L25.4353 22.6041H21.1153L20.2153 33.8721H18.3433L19.2253 22.6041ZM28.8594 33.9981C27.9834 33.9981 27.2154 33.8181 26.5554 33.4581C25.8954 33.0981 25.3854 32.5881 25.0254 31.9281C24.6774 31.2561 24.5034 30.4761 24.5034 29.5881C24.5034 28.5801 24.6894 27.6981 25.0614 26.9421C25.4454 26.1861 25.9794 25.6041 26.6634 25.1961C27.3474 24.7881 28.1394 24.5841 29.0394 24.5841C29.9154 24.5841 30.6774 24.7701 31.3254 25.1421C31.9854 25.5021 32.4894 26.0121 32.8374 26.6721C33.1974 27.3321 33.3774 28.1061 33.3774 28.9941C33.3774 30.0021 33.1854 30.8841 32.8014 31.6401C32.4294 32.3961 31.9014 32.9781 31.2174 33.3861C30.5454 33.7941 29.7594 33.9981 28.8594 33.9981ZM28.8774 32.5761C29.7294 32.5761 30.3834 32.2461 30.8394 31.5861C31.3074 30.9261 31.5414 30.0441 31.5414 28.9401C31.5414 28.0041 31.3254 27.2841 30.8934 26.7801C30.4614 26.2761 29.8434 26.0241 29.0394 26.0241C28.1754 26.0241 27.5094 26.3541 27.0414 27.0141C26.5734 27.6621 26.3394 28.5381 26.3394 29.6421C26.3394 30.6021 26.5494 31.3341 26.9694 31.8381C27.4014 32.3301 28.0374 32.5761 28.8774 32.5761ZM49.2832 20.6241L48.2212 33.8721H46.4392L46.5472 32.5221C46.2472 32.9901 45.8392 33.3561 45.3232 33.6201C44.8072 33.8721 44.2432 33.9981 43.6312 33.9981C42.8632 33.9981 42.1852 33.8241 41.5972 33.4761C41.0212 33.1161 40.5712 32.6061 40.2472 31.9461C39.9232 31.2861 39.7612 30.5181 39.7612 29.6421C39.7612 28.6461 39.9412 27.7641 40.3012 26.9961C40.6612 26.2281 41.1652 25.6341 41.8132 25.2141C42.4612 24.7941 43.2052 24.5841 44.0452 24.5841C44.7412 24.5841 45.3472 24.7281 45.8632 25.0161C46.3792 25.3041 46.7692 25.7181 47.0332 26.2581L47.4652 20.6241H49.2832ZM44.1532 32.5761C44.9812 32.5761 45.6292 32.2581 46.0972 31.6221C46.5772 30.9741 46.8172 30.1041 46.8172 29.0121C46.8172 28.0401 46.6012 27.3021 46.1692 26.7981C45.7372 26.2821 45.1132 26.0241 44.2972 26.0241C43.4572 26.0241 42.7972 26.3421 42.3172 26.9781C41.8372 27.6021 41.5972 28.4661 41.5972 29.5701C41.5972 30.5181 41.8192 31.2561 42.2632 31.7841C42.7072 32.3121 43.3372 32.5761 44.1532 32.5761ZM55.086 33.9981C54.21 33.9981 53.442 33.8181 52.782 33.4581C52.122 33.0981 51.612 32.5881 51.252 31.9281C50.904 31.2561 50.73 30.4761 50.73 29.5881C50.73 28.5801 50.916 27.6981 51.288 26.9421C51.672 26.1861 52.206 25.6041 52.89 25.1961C53.574 24.7881 54.366 24.5841 55.266 24.5841C56.142 24.5841 56.904 24.7701 57.552 25.1421C58.212 25.5021 58.716 26.0121 59.064 26.6721C59.424 27.3321 59.604 28.1061 59.604 28.9941C59.604 30.0021 59.412 30.8841 59.028 31.6401C58.656 32.3961 58.128 32.9781 57.444 33.3861C56.772 33.7941 55.986 33.9981 55.086 33.9981ZM55.104 32.5761C55.956 32.5761 56.61 32.2461 57.066 31.5861C57.534 30.9261 57.768 30.0441 57.768 28.9401C57.768 28.0041 57.552 27.2841 57.12 26.7801C56.688 26.2761 56.07 26.0241 55.266 26.0241C54.402 26.0241 53.736 26.3541 53.268 27.0141C52.8 27.6621 52.566 28.5381 52.566 29.6421C52.566 30.6021 52.776 31.3341 53.196 31.8381C53.628 32.3301 54.264 32.5761 55.104 32.5761ZM67.3558 21.0561H69.2278L68.3458 32.3241H74.5738L74.4478 33.8721H66.3658L67.3558 21.0561ZM76.8194 24.8001H78.6374L77.9174 33.8721H76.0994L76.8194 24.8001ZM79.0874 20.8401L78.9434 22.7481H76.8194L76.9634 20.8401H79.0874ZM83.8583 33.9981C82.3823 33.9981 81.1163 33.6141 80.0603 32.8461L80.7263 31.5501C81.7343 32.2701 82.7903 32.6301 83.8943 32.6301C84.5543 32.6301 85.0523 32.5281 85.3883 32.3241C85.7243 32.1201 85.8923 31.8201 85.8923 31.4241C85.8923 31.0521 85.7243 30.7701 85.3883 30.5781C85.0523 30.3861 84.5303 30.1881 83.8223 29.9841C83.1863 29.8041 82.6643 29.6301 82.2563 29.4621C81.8603 29.2821 81.5183 29.0241 81.2303 28.6881C80.9543 28.3521 80.8163 27.9081 80.8163 27.3561C80.8163 26.5161 81.1463 25.8441 81.8063 25.3401C82.4783 24.8361 83.3723 24.5841 84.4883 24.5841C85.1483 24.5841 85.7723 24.6861 86.3603 24.8901C86.9603 25.0941 87.4583 25.3821 87.8543 25.7541L87.2063 27.0321C86.3303 26.3241 85.4243 25.9701 84.4883 25.9701C83.8523 25.9701 83.3603 26.0841 83.0123 26.3121C82.6763 26.5281 82.5083 26.8401 82.5083 27.2481C82.5083 27.5121 82.5983 27.7281 82.7783 27.8961C82.9583 28.0641 83.1743 28.2021 83.4263 28.3101C83.6903 28.4061 84.0683 28.5261 84.5603 28.6701C85.1963 28.8501 85.7123 29.0301 86.1083 29.2101C86.5163 29.3781 86.8643 29.6361 87.1523 29.9841C87.4403 30.3201 87.5843 30.7641 87.5843 31.3161C87.5843 32.1561 87.2483 32.8161 86.5763 33.2961C85.9043 33.7641 84.9983 33.9981 83.8583 33.9981ZM92.0512 30.7581L92.0332 31.0461C92.0332 31.9941 92.5012 32.4681 93.4372 32.4681C93.7492 32.4681 94.0672 32.4201 94.3912 32.3241L94.2832 33.8001C93.8872 33.9321 93.4372 33.9981 92.9332 33.9981C92.0572 33.9981 91.3852 33.7701 90.9172 33.3141C90.4492 32.8581 90.2152 32.1981 90.2152 31.3341C90.2152 31.1541 90.2212 31.0161 90.2332 30.9201L90.5932 26.2041H88.8292L88.9552 24.8001H90.7012L90.8812 22.5321L92.7352 21.9021L92.5192 24.8001H95.0212L94.9132 26.2041H92.4112L92.0512 30.7581Z" fill="#373737"/>
</svg>
